<svg id="Layer_1" data-name="Layer 1" xmlns="http://www.w3.org/2000/svg" viewBox="0 0 76 72.5"><defs><style>.cls-1{fill:#ffab19;}.cls-1,.cls-4{stroke:#000;stroke-opacity:0.15;}.cls-2{isolation:isolate;font-size:11px;font-family:HelveticaNeue, Helvetica Neue;letter-spacing:-0.02em;}.cls-2,.cls-4{fill:#fff;}.cls-3{letter-spacing:0em;}</style></defs><title>repeat</title><path class="cls-1" d="M2,4Q2,0,6,0h4a5.2,5.2,0,0,1,4,2l1.5,1.5a5.2,5.2,0,0,0,4,2h8a5.2,5.2,0,0,0,4-2L33,2a5.2,5.2,0,0,1,4-2H73q4,0,4,4h0V29q0,4-4,4H47a5.2,5.2,0,0,0-4,2l-1.5,1.5a5.2,5.2,0,0,1-4,2h-8a5.2,5.2,0,0,1-4-2L24,35a5.2,5.2,0,0,0-4-2H16a4,4,0,0,0-4,4v4a4,4,0,0,0,4,4H73a4,4,0,0,1,4,4V62q0,4-4,4H37a5.2,5.2,0,0,0-4,2l-1.5,1.5a5.2,5.2,0,0,1-4,2h-8a5.2,5.2,0,0,1-4-2L14,68a5.2,5.2,0,0,0-4-2H6a4,4,0,0,1-4-4Z" transform="translate(-1.5 0.5)"/><text class="cls-2" transform="translate(6.5 21.5)">r<tspan class="cls-3" x="3.46" y="0">epeat</tspan></text><path class="cls-4" d="M56,7h5A10,10,0,0,1,71,17h0A10,10,0,0,1,61,27H56A10,10,0,0,1,46,17h0A10,10,0,0,1,56,7Z" transform="translate(-1.5 0.5)"/></svg>